<svg xmlns="http://www.w3.org/2000/svg" viewBox="0 0 1135.32 1545.67"><defs><style>.a4a09cc8-0073-437c-830b-06590d57698d{fill:#fdfdfd;}.a4a09cc8-0073-437c-830b-06590d57698d,.a5ee6534-bfdf-4a39-bc78-4e14257423f6,.ab567613-d5e7-447a-a581-c983d4195d2e,.abba515a-e0c2-430e-8b22-b913ab67c3d4,.b44cfacd-87fa-4ea8-9866-dd71fea336ef,.b6b95b8f-6074-4466-a155-fca432f85105,.e017fb0b-a8a0-4606-8863-0e0f1bc692d7,.e573d6f3-98d4-47ff-829e-7e5f1d61769d,.ea5704ad-a760-446a-b3da-f101e9821fba{fill-rule:evenodd;}.b6b95b8f-6074-4466-a155-fca432f85105{fill:#ba736a;}.e017fb0b-a8a0-4606-8863-0e0f1bc692d7{fill:#ffe9e1;}.ab567613-d5e7-447a-a581-c983d4195d2e,.b44cfacd-87fa-4ea8-9866-dd71fea336ef{fill:#ea6f68;}.e573d6f3-98d4-47ff-829e-7e5f1d61769d{fill:#a5bb7a;}.a5ee6534-bfdf-4a39-bc78-4e14257423f6{fill:#efa5a1;}.abba515a-e0c2-430e-8b22-b913ab67c3d4{fill:#765651;}.ea5704ad-a760-446a-b3da-f101e9821fba{fill:#fff;}.f05f18ee-af63-4fb8-a6e2-dff10b562940{fill:#ffc8bb;}.b44cfacd-87fa-4ea8-9866-dd71fea336ef{opacity:0.5;isolation:isolate;}.a934b605-c537-462b-a82e-03baeea0f850{fill:#2e2020;}</style></defs><title>Asset 3</title><g id="b4bc8bfe-44f8-4098-a4db-01433a53f7fb" data-name="Layer 2"><g id="fc18223e-601b-44d7-ae88-062217743cb2" data-name="Ñëîé 1"><g id="babc88c5-73b1-490a-ad4c-e3403483e407" data-name="Ñëîé 1"><path class="a4a09cc8-0073-437c-830b-06590d57698d" d="M13.69,1071.82c0-11.41,10.5-52.95,20.09-96.77,12.78-58,26.93-124.17,50.67-176.21,14.61-32.42,36.52-59.35,50.67-66.65,127.37-68,193.1,23.74,371.6,23.74,139.68,0,404.91-89.48,489.36-21.46,5,4.11,33.78,25.11,49.76,65.28,16.44,40.63,29.67,83.08,40.63,133.3,14.61,68,30.13,125.53,30.13,147,.46,20.54-11,46.11-34.69,49.3-54.78,7.76-192.19,158.86-195.39,192.19-2.74,33.78-4.56,65.28-5,90.39-.91,49.3,11.87,83.08,11.87,83.08s-176.21,50.67-340.09,50.67S237.38,1495,237.38,1495a588.38,588.38,0,0,0,10-84.91c1.83-35.61-2.28-76.69-3.65-90.84-3.65-42.46-133.3-170.73-201.77-189.91C13.24,1121.13,13.69,1093.28,13.69,1071.82Z"/><path class="b6b95b8f-6074-4466-a155-fca432f85105" d="M268,309c-2.74-41.54,11.41-115.49,47-180.32C325,110,336,92.17,350.14,76.2c20.08-23.28,58-44.74,82.17-58C452.85,6.81,483,3.16,504.89,4.07,524.52,5,536.39,10,548.71,10c13.7,0,30.59-4.1,48.39-4.56,24.65-.46,49.76,3.19,66.65,10.5C729.49,45.61,760.07,115.91,782,162c5.48,11.41,19.63,37.43,23.74,53.87,5.94,21.45,10.5,38.34,12.33,62.54,2.28,36.52-6.39,61.62-24.2,95.4-15.06,29.22-25.1,59.81-59.8,59.81-57.52,0-302.2,16.89-346,30.58-11.86,3.65-48.84-37-59.34-40.63C315.44,419,294,390.73,280.75,361.05,271.62,341.42,268.88,318.6,268,309Z"/><path class="b6b95b8f-6074-4466-a155-fca432f85105" d="M79.43,218.17c6.85-32.87,40.63-81.26,82.17-118.24C186.71,77.57,231.45,68,244.23,68c10.5,0,49.76,15.52,55.69,31.5,14.15,36.06-14.61,91.3-34.69,93.58-36.52,4.11-60.72,65.74-61.17,99.06-.46,31,12.32,58,5.93,89.48-4.11,21-11,30.58-19.17,46.1-10,18.72-36.07,31.5-56.15,32.87-16,1.37-26-5.93-34.7-11-3.65-1.82-20.54,1.83-32.41-6.39-20.54-14.15-37-43.82-18.26-49.3,30.59-9.13,35.61-30.58,34.24-44.74-1.37-21-11.87-43.82-11.41-63.45C72.58,254.23,76.69,229.12,79.43,218.17Z"/><path class="b6b95b8f-6074-4466-a155-fca432f85105" d="M976,183.93c-6.85-32.87-40.63-81.26-82.17-118.23-25.11-22.37-69.85-32-82.63-32-10.5,0-49.76,15.52-55.69,31.5-14.15,36.06,14.61,91.3,34.69,93.58,36.52,4.11,60.72,65.74,61.17,99.06.46,31.05-11.41,68-5.48,99.52,4.11,21,7.31,25.11,18.72,38.35,12.78,15.06,36.06,28.76,55.69,30.58,16,1.37,26-5.93,34.7-10.95,3.65-1.83,20.54,1.82,32.41-6.39,20.54-14.16,37-43.83,18.26-49.31-30.59-9.13-35.61-30.58-34.24-44.73,1.37-21,11.87-43.83,11.41-63.46A337.62,337.62,0,0,0,976,183.93Z"/><path class="e017fb0b-a8a0-4606-8863-0e0f1bc692d7" d="M319.09,459.66c0-13.7.92-17.35,7.76-30.13,1.37-2.74,12.79-7.31,22.83-3.2,6.39,2.74,12.32,8.68,14.61,22.37.91,5.48,18.71-6.39,11.41-28.3-.91-2.74-10.5-11.41-10.5-37,0-18.26,8.67-37.89,16-58,3.19-8.68,3.19-22.83,6.84-27.85,14.61-20.09,27.85-40.17,37-75.78,7.31-27.85,7.76-45.65,9.13-55.24,3.65-23.28,15.07-4.56,30.13,35.15,5.48,15.07,15.52,28.76,27.85,39.72,20.54,18.26,48.84,30.13,76.23,41.08,12.78,5,53,1.37,65.74-5.93,3.65-2.28,54.78-12.33,63.91,3.2,3.65,5.93,13.24,21,20.08,32.41,11.87,19.63,21,38.8,21.92,57.52.91,18.26-7.31,37.43-2.29,35.6a30.41,30.41,0,0,0,17.81-13.24c5.93-10,14.15-15.06,21.91-18.71,10.5-5.48,16.89,2.28,21.46,9.13,2.73,3.65,9.58,19.17,10,32.87.45,18.26-7.31,37.43-21,56.6-6.85,9.59-14.61,19.63-30.13,19.18-4.11,0-8.67-4.11-15.06,26.47C740,531.33,724,572.87,718.53,582c-3.65,6.39,5.94,37.89,2.28,39.26-10.5,4.11-26.93.45-37.89-9.13-5.47-5,4.11,19.63-18.26,26-5.47,1.37-15.06-1.37-21.91-5C631.8,627.65,624,620.34,614,619c-7.3-1.37-5.93,6.39-8.21,10-5,6.85-9.13,12.78-14.61,12.78-5,0-25.11-2.74-32.41-11.41-9.59-11.41-6.39-30.13-13.7-29.22S531.82,619,525.43,622.63c-13.69,8.21-18.26-9.13-26-6.85-8.67,2.74-16.43,23.74-23.74,15.06-24.19-29.67-37-3.65-37.89-10-.45-2.28-.91-14.15-5.93-24.65-5.48-11.41-13.7-20.09-20.54-30.59-8.68-13.23-15.52-27.39-17.35-26.93-11,5-39.26-4.56-47-13.24C329.59,503.94,319.09,482.94,319.09,459.66Z"/><path class="ab567613-d5e7-447a-a581-c983d4195d2e" d="M517.21,562.37c-13.69-11.87-26-31.5-26.93-39.72-2.28-17.34,28.76-14.6,73.5-20.54s84.45-9.59,85.82.46c1.37,10.95-5,41.54-26,62.08C592.54,594.32,544.15,586.11,517.21,562.37Z"/><path class="e573d6f3-98d4-47ff-829e-7e5f1d61769d" d="M985.58,643.17C945.87,692.93,882.41,729,818.5,764.6c-52,29.21-164.34,56.6-243.31,57.06-72.58,0-137.86-4.11-214.55-26.93-58.44-17.35-125.09-53-163.43-80.8C132.39,666.45,96.78,618.52,72.58,572.87c-26-49.3-29.67-122.34-29.67-122.34,8.67.91,279.84,236.92,531.82,239.2,249.71,2.29,480.7-229.62,483.89-231.44C1059.08,457.83,1058.17,551.87,985.58,643.17Z"/><path class="ab567613-d5e7-447a-a581-c983d4195d2e" d="M994.26,599.35C955,649.56,882,691.1,818.05,726.71c-52,29.22-164.34,56.61-243.32,57.06-72.58,0-137.86-4.11-214.55-26.93C301.75,739.49,245.6,708,207.25,680.15c-64.82-47.48-106.82-106.37-131-152.47-26-49.31-30.59-84.91-30.59-84.91C63,444.59,253.81,524.94,266.14,543.2c5,6.84,10,19.17,17.35,23.73,5.93,3.66,20.08-4.56,24.19-.91,7.76,7.31,7.76,22.83,17.8,30.59,18.72,14.6,27.85,1.82,45.65,3.65,11.87.91,26.94,23.28,40.18,27.85,20.54,6.39,27.39-12.33,42.45-14.16,6.85-.91,15.52,11.87,21.46,14.61,13.23,5.94,19.17-15.06,26.93-12.78s8.67,11.41,18.72,8.67c10-2.28,15.06-21.91,24.65-23.28,3.65-.45,5.93,15.07,6.84,17.81,3.2,8.67,13.7,17.34,22.37,21A24.56,24.56,0,0,0,603,632.21c2.28-2.74,5-16.89,10-15.52,16.43,5,25.11,22.37,44.74,21.46,9.58-.46,20.54-5.94,23.73-15.07,1.37-4.1-3.65-11.41.46-13.23s7.31,5.93,11.41,7.76c11.42,5,33.78,6.39,43.37-2.29a26.27,26.27,0,0,0,7.76-22.82c0-.91-3.19-14.61-.45-13.24,20.08,6.85,31.95,25.11,56.6,16.89,17.8-5.93,14.15-26.93,28.3-31.5,33.33-10.5,222.78-115.95,230.08-119.14C1058.62,445.05,1059.08,517.18,994.26,599.35Z"/><path class="a5ee6534-bfdf-4a39-bc78-4e14257423f6" d="M994.26,599.35C955,649.56,882,691.1,818.05,726.71c-52,29.22-164.34,56.61-243.32,57.06-72.58,0-137.86-4.11-214.55-26.93C301.75,739.49,245.6,708,207.25,680.15c-64.82-47.48-106.82-106.37-131-152.47-26-49.31-30.59-84.91-30.59-84.91,8.67.91,101.8,322.29,512.65,317.72,416.78-4.56,496.67-314.07,500.32-315.9C1058.62,445.05,1059.08,517.18,994.26,599.35Z"/><path class="e017fb0b-a8a0-4606-8863-0e0f1bc692d7" d="M133.3,725.8c-2.28-6.39-4.11-28.76-5-34.7,0-1.37-4.57-5.93-8.22-11.41a185.82,185.82,0,0,1-16-31.5c-3.65-10,2.74-14.61,6.39-12.78,5,1.83,15.52,17.8,23.74,24.19,1.37.92,7.31-17.34,12.33-34.69,4.11-13.24,6.39-24.65,11.87-35.61,5-10,11-15.06,16-14.15,3.2.46,12.33,17.35,11,34.7-.91,14.15-7.31,34.23-10,49.75-2.29,12.79-1.83,21,.45,32,2.74,13.24,12.78,28.76,20.55,32.87,1.82.91,2.73-8.68,9.58-22.37,8.22-15.52,23.28-36.52,34.7-52,12.78-17.81,28.3-30.13,36.06-36.07,21-15.52,39.71-20.54,41.08-19.63,5.94,3.2,8.22,12.33,2.29,26.48-1.37,3.65,1.37-.46,9.58,4.11,7.76,4.56,6.39,17.35,5,28.3C331,690.65,294,747.71,298.55,755c6.39,10.5,21,26,26.48,29.22s11,9.58,20.08,6.39c.92-.46,7.76-6.85,13.24-14.15,10-13.7,22.83-34.24,35.61-50.67,13.24-16.89,20.54-23.74,26.48-23.74,3.65,0,9.13,9.58,7.76,20.08C426.37,734.47,415,745.88,409.48,760,404,775.1,388,809.34,384.83,821.66c-.91,3.2,4.56,6.39,10.5,13.7,5.93,7.76,12.78,21,15.52,31.95,3.2,12.33,5.93,20.09,2.74,32.87-3.2,14.15-12.33,32.87-17.8,42.91-2.29,4.57-25.11,62.08-52.5,138.78-24.65,68-53,150.64-85.37,213.64-26.47,50.67-68.47,93.58-86.28,104.08-14.6,8.67-42.45,29.22-65.73,13.24-21-14.61-48.85-48.39-63.46-84.45-11-26.48-11.41-53-15.06-80.8-1.83-15.07,8.67-78.07,16.89-125.09,3.65-21.45,6.85-46.56,7.76-50.21.91-5,31-5.48,58.43-.91s51.59,14.6,52.5,13.69c19.17-22.82,69.39-98.6,97.23-147.45,11-19.63,21-43.37,20.09-44.28-10.5-13.24-64.37-68.47-104.54-110.93C152,755.47,139.23,744.06,133.3,725.8Z"/><path class="e017fb0b-a8a0-4606-8863-0e0f1bc692d7" d="M995.63,725.8c2.28-6.39,4.11-28.76,5-34.7,0-1.37,4.56-5.93,8.21-11.41a185.09,185.09,0,0,0,16-31.5c3.65-10,.46-13.69-5.93-18.26-6.39-4.11-20.09,0-28.31,6.39-1.36.92-3.19,5.48-8.21-11.87-4.11-13.24-6.39-24.65-11.87-35.6-5-10.05-11-15.07-16-14.16-3.19.46-12.32,17.35-10.95,34.7.91,14.15,7.3,34.24,10,49.76,2.28,12.78,1.82,21-.46,32-2.74,13.24-10.95,30.13-18.71,34.24-1.37.91-4.11-8.67-10.05-19.63-9.13-16.43-23.74-38.35-36.06-56.15-12.78-17.8-28.3-30.13-36.06-36.06-21-15.52-39.72-20.55-41.09-19.63-5.93,3.19-8.22,12.32-2.28,26.47,1.37,3.66-1.37-.45-9.59,4.11-7.76,4.57-6.39,17.35-5,28.31,3.65,37.43,40.17,94.49,36.06,101.8-6.39,10.5-21,26-26.47,29.21s-11,9.59-20.09,6.39c-.91-.45-7.76-6.84-13.24-14.15-10-13.69-22.82-34.24-35.6-50.67-13.24-16.89-20.55-23.74-26.48-23.74-3.65,0-9.13,9.59-7.76,20.09,1.82,12.32,13.24,23.74,18.71,37.89,5.48,15.06,21.46,49.3,24.65,61.62.92,3.2-4.56,5.94-10.49,13.7s-12.79,21-15.53,32c-3.19,12.33-5.93,20.09-2.73,32.87,3.19,14.15,12.32,32.87,17.8,42.91,2.28,4.57,25.11,62.09,52.5,138.78,24.65,68,53,150.64,85.36,213.64,26.48,50.67,68.48,93.58,86.28,104.08,14.61,8.68,42.46,29.22,65.74,13.24,21-14.15,48.84-48.39,63.45-84.45,11-26.48,11.41-53,15.06-80.8,1.83-15.07-8.67-78.06-16.89-125.08-3.65-21.91-6.84-46.56-7.76-50.22-.91-5-31-5.47-58.43-.91s-51.58,14.61-52.5,13.7c-19.17-22.83-69.38-98.61-97.23-147.45-11-19.63-21-43.37-20.09-44.28C859.13,879.64,913,824.4,953.17,782,976.91,755,989.69,743.6,995.63,725.8Z"/><path class="abba515a-e0c2-430e-8b22-b913ab67c3d4" d="M527.71,688.36c1.37-9.58,9.13-27.84,15.53-26.93s9.12,21,7.3,30.13c-1.37,9.59-7.76,16.43-14.15,15.52S525.89,698,527.71,688.36Z"/><path class="abba515a-e0c2-430e-8b22-b913ab67c3d4" d="M633.17,690.65c-3.2-9.13-5.48-28.76.45-31s18.26,13.7,21.46,22.83,1.37,17.8-5,20.08C644.12,705.25,636.82,699.78,633.17,690.65Z"/><path class="abba515a-e0c2-430e-8b22-b913ab67c3d4" d="M434.59,670.1c5-8.21,19.63-21.45,25.11-18.26s-.46,22.83-5.48,30.59c-5,8.22-13.7,11.87-19.18,8.22S429.57,677.86,434.59,670.1Z"/><path class="abba515a-e0c2-430e-8b22-b913ab67c3d4" d="M732.68,674.21c-5.48-7.76-13.24-26-7.76-30.13,5-3.65,21,8.68,26.48,16.44s5.93,16.89.91,21C746.83,685.17,738.16,682,732.68,674.21Z"/><path class="abba515a-e0c2-430e-8b22-b913ab67c3d4" d="M352.87,645.45c5-8.21,19.63-21.45,25.11-18.26,5.48,3.65-.45,22.83-5.48,30.59-5,8.21-13.69,11.87-19.17,8.21C347.85,662.8,347.85,653.67,352.87,645.45Z"/><path class="ea5704ad-a760-446a-b3da-f101e9821fba" d="M283,204c-8.22-3.2-7.76.91-14.61-11-6.85-12.32-10-18.26-6.85-31s11.42-25.11,16-35.61c4.57-10,20.09-19.17,24.2-23.28S315,95.37,320,98.57s12.32,6.84,4.56,16c-7.3,9.13-14.61,16-18.26,27.39-3.65,11.87-3.65,25.57-7.3,34.24C295.36,184.39,291.25,207.21,283,204Z"/><path class="ea5704ad-a760-446a-b3da-f101e9821fba" d="M729.94,72.09s.46-6.39,3.66-7.31c3.65-.91,11.86-.91,17.8,3.2s16.43,11.87,19.17,16c3.2,4.11,7.76,12.78,11.87,21.45,4.57,8.22,8.22,15.52,9.59,24.65.91,9.13,3.65,17.81.91,22.83s-6.85,12.78-11,7.3-9.13-17.34-14.6-26-7.76-11.87-1.83-11.87,11.87-1.37,3.65-5C761,113.17,755.51,107.7,748.66,99,741.81,90.8,729.94,72.09,729.94,72.09Z"/><path class="ea5704ad-a760-446a-b3da-f101e9821fba" d="M218.66,566s.46,11,4.57,17.35c4.11,6.85,12.32,9.58,12.32,9.58a14.94,14.94,0,0,0-11,7.31C221,607.11,220,620.34,220,620.34s-.91-12.32-5-19.17a16.84,16.84,0,0,0-11.41-7.76,16.35,16.35,0,0,0,10-8.22C217.29,578.35,218.66,566,218.66,566Z"/><path class="ea5704ad-a760-446a-b3da-f101e9821fba" d="M851.37,454.64s.46,10.95,4.57,17.8S868.26,482,868.26,482a14.91,14.91,0,0,0-11,7.3c-3.65,6.85-4.57,20.09-4.57,20.09s-.91-12.33-5-19.18a16.84,16.84,0,0,0-11.41-7.76,16.35,16.35,0,0,0,10-8.22C850,467,851.37,454.64,851.37,454.64Z"/><path class="ea5704ad-a760-446a-b3da-f101e9821fba" d="M35.15,716.67s.46,11,4.57,17.8S52,744.06,52,744.06a14.9,14.9,0,0,0-10.95,7.3c-3.66,6.85-4.57,20.09-4.57,20.09s-.91-12.33-5-19.18a16.88,16.88,0,0,0-11.41-7.76,16.35,16.35,0,0,0,10-8.21C33.78,728.54,35.15,716.67,35.15,716.67Z"/><path class="ea5704ad-a760-446a-b3da-f101e9821fba" d="M9.59,526.76s0,6.39,2.74,10.5a17.68,17.68,0,0,0,7.3,5.94,9,9,0,0,0-6.39,4.56c-2.28,4.11-2.74,12.33-2.74,12.33s-.46-7.76-3.2-11.87a12.55,12.55,0,0,0-7.3-5,10.4,10.4,0,0,0,5.93-5C8.67,534.07,9.59,526.76,9.59,526.76Z"/><path class="ea5704ad-a760-446a-b3da-f101e9821fba" d="M1068.21,646.82s0,6.39,2.74,10.5a17.74,17.74,0,0,0,7.3,5.94,9,9,0,0,0-6.39,4.56c-2.28,4.11-2.74,12.33-2.74,12.33s-.45-7.76-3.19-11.87a12.59,12.59,0,0,0-7.31-5,10.41,10.41,0,0,0,5.94-5C1067.3,654.13,1068.21,646.82,1068.21,646.82Z"/><path class="ea5704ad-a760-446a-b3da-f101e9821fba" d="M663.29,717.12s0,6.39,2.74,10.5a17.74,17.74,0,0,0,7.31,5.94,9,9,0,0,0-6.39,4.56c-2.29,4.11-2.74,12.33-2.74,12.33s-.46-7.76-3.2-11.87a12.58,12.58,0,0,0-7.3-5,10.41,10.41,0,0,0,5.93-5C662.38,724.43,663.29,717.12,663.29,717.12Z"/><path class="ea5704ad-a760-446a-b3da-f101e9821fba" d="M251.07,448.7s0,8.22,3.66,13.7c3.19,5.47,9.58,7.3,9.58,7.3a10.86,10.86,0,0,0-8.21,5.93c-2.74,5.48-3.66,15.53-3.66,15.53s-.91-9.59-4.1-15.07a13.91,13.91,0,0,0-9.13-6.39,11.83,11.83,0,0,0,7.76-6.39C250.16,458.29,251.07,448.7,251.07,448.7Z"/><path class="ea5704ad-a760-446a-b3da-f101e9821fba" d="M983.76,511.7s0,8.21,3.65,13.69c3.19,5.48,9.59,7.31,9.59,7.31a10.83,10.83,0,0,0-8.22,5.93c-2.74,5.48-3.65,15.52-3.65,15.52s-.92-9.58-4.11-15.06a13.91,13.91,0,0,0-9.13-6.39,11.87,11.87,0,0,0,7.76-6.39C982.84,521.28,983.76,511.7,983.76,511.7Z"/><path class="ea5704ad-a760-446a-b3da-f101e9821fba" d="M1122.08,442.77s0,8.21,3.65,13.69c3.19,5.48,9.59,7.31,9.59,7.31a10.83,10.83,0,0,0-8.22,5.93c-2.74,5.48-3.65,15.52-3.65,15.52s-.92-9.59-4.11-15.06a13.91,13.91,0,0,0-9.13-6.39,11.86,11.86,0,0,0,7.76-6.4C1121.16,452.35,1122.08,442.77,1122.08,442.77Z"/><path class="ea5704ad-a760-446a-b3da-f101e9821fba" d="M390.76,650.93s0,8.22,3.66,13.7c3.19,5.47,9.58,7.3,9.58,7.3a10.84,10.84,0,0,0-8.21,5.93c-2.74,5.48-3.66,15.52-3.66,15.52s-.91-9.58-4.11-15.06a13.88,13.88,0,0,0-9.12-6.39,11.83,11.83,0,0,0,7.76-6.39C389.85,660.52,390.76,650.93,390.76,650.93Z"/><path class="f05f18ee-af63-4fb8-a6e2-dff10b562940" d="M453.3,452.35a4.54,4.54,0,0,1-3-1.16c-3.52-3.15-4.7-4.18-5.78-5.14-1.59-1.39-3-2.62-11.12-9.93a4.57,4.57,0,1,1,6.11-6.79c8.06,7.26,9.45,8.48,11,9.86,1.1,1,2.28,2,5.85,5.19a4.57,4.57,0,0,1-3.05,8Z"/><path class="f05f18ee-af63-4fb8-a6e2-dff10b562940" d="M476.59,449.61a4.56,4.56,0,0,1-3.1-1.21c-1.11-1-2.43-2.31-3.89-3.75-4.33-4.25-14.46-14.21-18.58-14.21a4.57,4.57,0,0,1,0-9.13c7.26,0,15.61,7.62,25,16.82,1.39,1.37,2.64,2.6,3.68,3.56a4.56,4.56,0,0,1-3.09,7.92Z"/><path class="f05f18ee-af63-4fb8-a6e2-dff10b562940" d="M672,436.38a4.52,4.52,0,0,1-3-1.1c-7.68-6.53-8-6.83-10.49-8.83-1.47-1.2-3.69-3-8.63-7.1a4.56,4.56,0,1,1,5.82-7c4.91,4.07,7.12,5.86,8.58,7.05,2.48,2,2.85,2.33,10.64,9a4.57,4.57,0,0,1-3,8Z"/><path class="f05f18ee-af63-4fb8-a6e2-dff10b562940" d="M688.4,430.44a4.58,4.58,0,0,1-3-1.09c-3.9-3.32-6-5.14-7.35-6.34a82.3,82.3,0,0,0-7.28-5.76l-2.49-1.87a4.57,4.57,0,0,1,5.47-7.31l2.5,1.87a93.06,93.06,0,0,1,7.82,6.2c1.35,1.18,3.4,3,7.25,6.26a4.56,4.56,0,0,1-3,8Z"/><path class="f05f18ee-af63-4fb8-a6e2-dff10b562940" d="M714.42,430a4.57,4.57,0,0,1-1.89-.41c-6.49-2.94-11.44-7.46-16.24-11.83a79.48,79.48,0,0,0-9.92-8.12,4.57,4.57,0,0,1,5-7.66,86.75,86.75,0,0,1,11.1,9c4.47,4.07,8.69,7.92,13.87,10.27a4.56,4.56,0,0,1-1.89,8.72Z"/><path class="b44cfacd-87fa-4ea8-9866-dd71fea336ef" d="M478,536.81c-12.33,0-11.42,26.47,2.73,26.47C496.22,563.28,491.19,536.81,478,536.81Z"/><path class="b44cfacd-87fa-4ea8-9866-dd71fea336ef" d="M488.91,579.26c-2.74-11.41,16-4.57,10,5C496.22,588.85,490.28,585.19,488.91,579.26Z"/><path class="b44cfacd-87fa-4ea8-9866-dd71fea336ef" d="M645,570.13c1.37-7.76,8.68-19.17,15.07-8.67,3.19,5-2.28,17.34-8.22,18.71S644.12,577,645,570.13Z"/></g><g id="ebf7b8c0-5de8-49cb-8b1f-a8a576fa8bcc" data-name="Ñëîé 2"><path class="a934b605-c537-462b-a82e-03baeea0f850" d="M559.67,457.83a4.56,4.56,0,0,1-2.95-8.05c15.44-13,11.2-19.65,4.18-30.6-3.07-4.78-6.55-10.21-8-16.5-1.79-8.35-.51-14.67.73-20.77a50.87,50.87,0,0,0,1.45-12.46,4.56,4.56,0,0,1,4.38-4.74,4.45,4.45,0,0,1,4.74,4.38,58.49,58.49,0,0,1-1.62,14.63c-1.15,5.67-2.14,10.56-.76,17,1,4.68,3.81,9,6.73,13.53,6.95,10.83,15.59,24.3-6,42.5A4.54,4.54,0,0,1,559.67,457.83Z"/><path class="a934b605-c537-462b-a82e-03baeea0f850" d="M600.76,298.06a4.56,4.56,0,0,1-2.6-8.32c13.32-9.23,48.76-13.13,72.93-8a4.56,4.56,0,0,1-1.89,8.93c-23.24-4.91-55.63-.48-65.85,6.6A4.6,4.6,0,0,1,600.76,298.06Z"/><path class="a934b605-c537-462b-a82e-03baeea0f850" d="M421.81,328.64a4.57,4.57,0,0,1-3.08-7.94C449,293.17,482,298.56,499,304.22a4.57,4.57,0,1,1-2.89,8.67c-15.09-5-44.43-9.84-71.26,14.56A4.55,4.55,0,0,1,421.81,328.64Z"/><path class="a934b605-c537-462b-a82e-03baeea0f850" d="M384.05,545.85c-14.61,0-35.15-13.49-40.9-19.62-20.46-20.91-36.23-63.1-26-90.1,5.32-13.86,19.65-17.1,30.72-14.27,13.27,3.41,21.34,14.51,19.62,27a4.57,4.57,0,0,1-9.05-1.25c1.34-9.71-6.08-15.18-12.84-16.91-7.52-1.93-16.59,0-19.91,8.67-8,21.1,3.52,59.5,24.11,80.54,7.08,7.55,30.6,20.22,37.85,16.11a4.57,4.57,0,0,1,4.5,8A16.31,16.31,0,0,1,384.05,545.85Z"/><path class="a934b605-c537-462b-a82e-03baeea0f850" d="M368.86,502.57a4.56,4.56,0,0,1-4-2.42c-4.3-8-9.23-14.43-14.45-21.18-3.3-4.27-6.71-8.68-10-13.58a4.57,4.57,0,0,1,7.6-5.07c3.09,4.64,6.4,8.92,9.61,13.07,5.22,6.75,10.61,13.73,15.27,22.46A4.56,4.56,0,0,1,371,502,4.47,4.47,0,0,1,368.86,502.57Z"/><path class="a934b605-c537-462b-a82e-03baeea0f850" d="M757.33,452.35a4.76,4.76,0,0,1-1.28-.18,4.57,4.57,0,0,1-3.1-5.66c3.25-11.14,15.39-34.8,23.34-43.75a4.56,4.56,0,0,1,6.82,6.06c-6.94,7.81-18.49,30.3-21.4,40.25A4.55,4.55,0,0,1,757.33,452.35Z"/><path class="a934b605-c537-462b-a82e-03baeea0f850" d="M597.11,289.24c-23.87,0-50.86-6.93-75-20.07C481.08,246.77,454.38,210,447,165.51a4.56,4.56,0,0,1,9-1.5c6.94,41.61,32,76.11,70.55,97.14,34.67,18.91,77,24.29,103,13.08a4.57,4.57,0,0,1,3.62,8.39C622.81,287.07,610.45,289.24,597.11,289.24Z"/><path class="a934b605-c537-462b-a82e-03baeea0f850" d="M726.3,278.43H726c-4.73-.27-10-.37-15.71-.48-41.43-.8-110.78-2.14-159.49-76.44a4.57,4.57,0,0,1,7.64-5c46.06,70.27,109.83,71.5,152,72.32,5.76.11,11.2.21,16.06.49a4.57,4.57,0,0,1-.25,9.13Z"/><path class="a934b605-c537-462b-a82e-03baeea0f850" d="M739.07,377a4.57,4.57,0,0,1-4.55-4.21c-2.45-31.1-11.46-44-25.11-63.45-3.5-5-7.46-10.65-11.61-17.05a4.57,4.57,0,0,1,7.67-5c4,6.26,7.8,11.6,11.42,16.77,14,20,24.09,34.4,26.73,68a4.57,4.57,0,0,1-4.19,4.91Z"/><path class="a934b605-c537-462b-a82e-03baeea0f850" d="M353.79,331.84a4.57,4.57,0,0,1-2.83-8.16c46.23-36.35,69.75-83.09,78.64-156.28a4.56,4.56,0,0,1,9.06,1.1c-9.2,75.82-33.74,124.37-82.05,162.36A4.54,4.54,0,0,1,353.79,331.84Z"/><path class="a934b605-c537-462b-a82e-03baeea0f850" d="M375.25,425.88a4.58,4.58,0,0,1-3.59-1.74c-19.57-24.71-14.89-65.09,1.76-87.28a4.56,4.56,0,0,1,7.3,5.48c-16.11,21.48-17,57.06-1.9,76.14a4.57,4.57,0,0,1-3.57,7.4Z"/><path class="a934b605-c537-462b-a82e-03baeea0f850" d="M737.71,411.72a4.56,4.56,0,0,1-2.8-8.17c12.17-9.43,13.71-21.78,14.67-39.55a4.57,4.57,0,0,1,9.12.49c-.85,15.75-1.81,33.59-18.2,46.28A4.57,4.57,0,0,1,737.71,411.72Z"/><path class="a934b605-c537-462b-a82e-03baeea0f850" d="M757.33,494.35a4.57,4.57,0,0,1-.61-9.09c21.88-3,37.57-26.56,43.41-48.63,5-19.08,4.6-43.92-11.78-56.43-4.52-3.55-8.75-4-13.38-1.58-11.34,6-20,26.59-19.47,34.15a4.57,4.57,0,1,1-9.11.65c-.8-11.14,10-35.28,24.3-42.87,7.87-4.17,15.92-3.34,23.25,2.44,16.64,12.7,22.42,38,15,66-6.61,25-25,51.81-51,55.34A4.17,4.17,0,0,1,757.33,494.35Z"/><path class="a934b605-c537-462b-a82e-03baeea0f850" d="M574.43,588.22c-22.32,0-44.59-8.65-60.22-22.41-13.5-11.71-27.33-32.43-28.47-42.65a13.93,13.93,0,0,1,2.78-10.84c6.38-8,21.75-9.41,45-11.56,8.86-.82,18.9-1.75,29.65-3.17,67.18-8.91,89.28-7.85,91,4.36s-4.94,44-27.36,66C611.88,582.15,593.14,588.22,574.43,588.22Zm55.19-87.48c-11.85,0-31.93,1.48-65.24,5.9-10.93,1.45-21.06,2.39-30,3.21-18.65,1.73-34.76,3.22-38.71,8.17-.56.69-1.15,1.78-.85,4,.72,6.52,11.95,25.2,25.39,36.86,0,0,0,0,0,0,25.71,22.65,71.32,30,100.19,2.4,20.25-19.81,25.77-49.27,24.65-58.22C644,501.85,639.9,500.74,629.62,500.74Z"/><path class="a934b605-c537-462b-a82e-03baeea0f850" d="M268.88,223.65a4.57,4.57,0,0,1-2-8.69c20.81-9.92,25.64-30.68,30.75-52.65,1.55-6.65,3.15-13.52,5.22-19.95,3.54-11.81,10.52-22.16,17.27-32.17,1.44-2.13,2.87-4.24,4.25-6.36C362.26,46.28,426.14,5.7,487.15.44c16.52-1.39,31.93.78,46.82,2.87,5.48.77,11,1.55,16.6,2.16a4.56,4.56,0,1,1-1,9.07c-5.71-.62-11.31-1.4-16.89-2.19-15.06-2.11-29.27-4.11-44.78-2.82-58.32,5-119.51,44-155.88,99.31-1.4,2.14-2.86,4.29-4.32,6.46-6.37,9.44-13,19.2-16.12,29.77-2,6.16-3.47,12.54-5,19.31-5.13,22-10.95,47-35.72,58.82A4.56,4.56,0,0,1,268.88,223.65Z"/><path class="a934b605-c537-462b-a82e-03baeea0f850" d="M325.94,427.25a4.54,4.54,0,0,1-2.82-1c-54.87-43.11-75.07-123.17-47-186.22a4.56,4.56,0,1,1,8.34,3.71c-26,58.38-6.53,135.39,44.3,175.33a4.57,4.57,0,0,1-2.82,8.16Z"/><path class="a934b605-c537-462b-a82e-03baeea0f850" d="M777,124.59a4.63,4.63,0,0,1-1.87-.4c-21.25-9.52-33.13-26.37-44.63-42.66-5.78-8.2-11.77-16.67-18.88-24.08-32.21-33.46-93.29-58.86-143-40a4.57,4.57,0,1,1-3.24-8.54c53.37-20.25,118.57,6.62,152.82,42.19,7.59,7.91,13.77,16.67,19.75,25.15,11.28,16,21.94,31.09,40.91,39.59a4.56,4.56,0,0,1-1.87,8.73Z"/><path class="a934b605-c537-462b-a82e-03baeea0f850" d="M793.39,377.94a4.44,4.44,0,0,1-2.29-.62,4.57,4.57,0,0,1-1.65-6.24c47.27-81.2,13.87-158.3-31.13-243.45a4.57,4.57,0,0,1,8.07-4.27c37.7,71.34,84.61,160.13,31,252.31A4.54,4.54,0,0,1,793.39,377.94Z"/><path class="a934b605-c537-462b-a82e-03baeea0f850" d="M443.26,412.18a4.57,4.57,0,0,1-3-8c14-12.42,43.2-13.2,57.91-1.53a4.57,4.57,0,1,1-5.68,7.15C481.18,400.87,457,401.5,446.3,411A4.6,4.6,0,0,1,443.26,412.18Z"/><path class="a934b605-c537-462b-a82e-03baeea0f850" d="M630.43,399.4a4.56,4.56,0,0,1-3-8c17.71-15.69,30.21-11.52,47.49-5.75l.8.27a4.56,4.56,0,1,1-2.89,8.66l-.8-.27c-17-5.68-24.79-8.26-38.55,3.92A4.53,4.53,0,0,1,630.43,399.4Z"/><path class="a934b605-c537-462b-a82e-03baeea0f850" d="M277.09,205.84a4.55,4.55,0,0,1-2-.48,31.48,31.48,0,0,1-17.55-24c-4.06-25,15.38-59.91,31-75.5,3-3,21.46-15.91,31.95-11.57,2.4,1,6.42,3.77,6.42,11.14a4.57,4.57,0,1,1-9.13,0c0-.88-.1-2.42-.79-2.7-4.33-1.77-18.6,6.18-22,9.58-13.85,13.85-31.94,45.89-28.42,67.59,1.31,8.05,5.44,13.72,12.63,17.31a4.57,4.57,0,0,1-2.05,8.65Z"/><path class="a934b605-c537-462b-a82e-03baeea0f850" d="M49.76,398a4.57,4.57,0,1,1,0-9.13c17.68,0,27.74-20.56,29.24-35.16,1.54-13.86-1.84-25.78-5.41-38.41-2.48-8.75-5-17.81-6-27.79-9.84-109.28,90.05-208,147.88-219.92,38.52-7.81,70.67,2.71,88.25,28.86a4.57,4.57,0,0,1-7.58,5.09c-15.41-22.93-44.14-32-78.84-25-55,11.35-150,105.65-140.61,210.13.87,9.14,3.32,17.79,5.69,26.15,3.66,12.92,7.44,26.27,5.71,41.87C85.89,376,71,398,49.76,398Z"/><path class="a934b605-c537-462b-a82e-03baeea0f850" d="M130.66,464.61a54,54,0,0,1-34-11.87,4.56,4.56,0,0,1,5.65-7.17c14.84,11.69,30.83,10.91,41.62,8.2,22.62-5.67,45.24-25.21,55-47.53,9.16-21.11,5.89-43.84,2.42-67.9-2.41-16.79-4.91-34.15-2.77-50.91,2.44-18.79,14-81.36,61.47-97.77a4.57,4.57,0,0,1,3,8.63c-42.46,14.7-53.14,72.84-55.4,90.31-2,15.52.32,31.51,2.75,48.44,3.49,24.26,7.1,49.35-3.09,72.85-10.83,24.74-36,46.42-61.15,52.74A64.07,64.07,0,0,1,130.66,464.61Z"/><path class="a934b605-c537-462b-a82e-03baeea0f850" d="M67.68,443.81a20.7,20.7,0,0,1-8.92-1.94,4.56,4.56,0,0,1,3.91-8.25c3.76,1.78,8.56,1.36,14.27-1.26,13-5.94,25.31-21,27.31-28.24a4.56,4.56,0,1,1,8.8,2.43c-2.88,10.43-17.31,27.24-32.3,34.11A31.73,31.73,0,0,1,67.68,443.81Z"/><path class="a934b605-c537-462b-a82e-03baeea0f850" d="M787.91,162a4.5,4.5,0,0,1-2.4-.69,4.56,4.56,0,0,1-1.47-6.28c12.26-19.78-9.46-61.09-25.37-77-3.41-3.41-17.67-11.37-22-9.59-.69.29-.79,1.82-.79,2.71a4.57,4.57,0,0,1-9.13,0c0-7.38,4-10.15,6.42-11.15,10.49-4.34,29,8.6,32,11.57,18,18,42.36,62.94,26.67,88.26A4.57,4.57,0,0,1,787.91,162Z"/><path class="a934b605-c537-462b-a82e-03baeea0f850" d="M1004.3,364.25c-21.2,0-36.13-22.05-38.32-43.36-1.73-15.56,2-28.91,5.71-41.82,2.37-8.37,4.82-17,5.7-26.19,9.41-104.45-85.61-198.75-140.63-210.1-34.67-7-63.42,2.08-78.83,25a4.57,4.57,0,0,1-7.58-5.1C767.93,36.54,800.08,26,838.59,33.83c57.84,11.94,157.73,110.65,147.89,219.9-1,10-3.53,19.07-6,27.82-3.57,12.63-7,24.55-5.41,38.37,1.5,14.64,11.56,35.2,29.24,35.2a4.57,4.57,0,1,1,0,9.13Z"/><path class="a934b605-c537-462b-a82e-03baeea0f850" d="M923.4,430.83a64.22,64.22,0,0,1-15.53-2c-25.17-6.32-50.32-28-61.14-52.73-10.19-23.51-6.59-48.6-3.09-72.86,2.43-16.93,4.73-32.92,2.75-48.45-2.26-17.46-12.94-75.6-55.4-90.3a4.57,4.57,0,0,1,3-8.63c47.42,16.42,59,79,61.46,97.77,2.15,16.76-.35,34.12-2.76,50.91-3.47,24.06-6.74,46.79,2.42,67.91,9.76,22.31,32.38,41.85,55,47.52,10.79,2.71,26.78,3.48,41.62-8.2a4.56,4.56,0,0,1,5.65,7.17A54,54,0,0,1,923.4,430.83Z"/><path class="a934b605-c537-462b-a82e-03baeea0f850" d="M986.38,410a31.56,31.56,0,0,1-13.07-3.16c-15-6.87-29.42-23.67-32.3-34.1a4.56,4.56,0,1,1,8.8-2.43c2,7.25,14.35,22.3,27.3,28.23,5.71,2.62,10.51,3.05,14.28,1.27a4.56,4.56,0,1,1,3.91,8.25A20.7,20.7,0,0,1,986.38,410Z"/><path class="a934b605-c537-462b-a82e-03baeea0f850" d="M445.54,612.13a4.54,4.54,0,0,1-3.25-1.37c-28.73-29.22-51.8-67.4-68.6-113.48a4.56,4.56,0,0,1,8.58-3.12C398.61,539,421,576.08,448.8,604.36a4.57,4.57,0,0,1-3.26,7.77Z"/><path class="a934b605-c537-462b-a82e-03baeea0f850" d="M698.9,614.41a4.57,4.57,0,0,1-3.63-7.34c36-47.05,50.69-113.22,52.48-159.46a4.56,4.56,0,0,1,9.12.36c-.89,23.11-7.47,103.3-54.34,164.65A4.58,4.58,0,0,1,698.9,614.41Z"/><path class="a934b605-c537-462b-a82e-03baeea0f850" d="M437.33,619a4.58,4.58,0,0,1-4.57-4.57c0-6-1-10.94-3.09-14.7a4.56,4.56,0,1,1,8-4.38c2.84,5.2,4.21,11.44,4.21,19.08A4.57,4.57,0,0,1,437.33,619Z"/><path class="a934b605-c537-462b-a82e-03baeea0f850" d="M35.6,1131.63a4.59,4.59,0,0,1-2.4-.69c-34.54-21.43-23-71.39-12.88-115.46,1.37-6,2.73-11.87,4-17.66l3.23-15.43c19.68-94.13,44.16-211.28,101.39-249.88a4.57,4.57,0,1,1,5.11,7.57C79.87,776.6,54.78,896.62,36.47,984.26l-3.24,15.46c-1.26,5.86-2.63,11.81-4,17.81-9.94,43.1-20.2,87.66,8.8,105.65a4.57,4.57,0,0,1-2.42,8.45Z"/><path class="a934b605-c537-462b-a82e-03baeea0f850" d="M44.74,1120.21a4.53,4.53,0,0,1-3.66-1.84c-8.17-11-9.63-24.95-3.83-36.5,5.6-11.15,16.93-17.81,30.31-17.81,33.86,0,45.73.7,93.18,16.21a4.56,4.56,0,1,1-2.84,8.67c-46.27-15.12-56.92-15.75-90.34-15.75-10,0-18.08,4.66-22.15,12.78-4.25,8.44-3.1,18.77,3,27a4.57,4.57,0,0,1-.94,6.39A4.51,4.51,0,0,1,44.74,1120.21Z"/><path class="a934b605-c537-462b-a82e-03baeea0f850" d="M127.22,1424.55c-20.65,0-36.4-18.84-48.13-32.87L76,1387.94C41.42,1347.09,26,1300,26,1235.25c0-28,5.53-55.85,10.88-82.83,5.2-26.21,10.58-53.31,10.58-79.68a4.57,4.57,0,1,1,9.13,0c0,27.27-5.47,54.82-10.75,81.46s-10.71,54-10.71,81c0,63.28,14.29,107.18,47.77,146.79l3.18,3.78c11.88,14.23,26.7,31.94,44.73,29.34,34.17-4.76,69.65-45.41,90.85-69.71l.39-.45c36.27-41.49,79.07-158.39,116.83-261.53C363.22,1017,386.2,954.27,405,918.16a4.56,4.56,0,1,1,8.1,4.21c-18.5,35.59-41.37,98.09-65.6,164.24-38,103.89-81.14,221.63-118.52,264.4l-.4.45c-22,25.25-58.91,67.51-96.45,72.74A35.48,35.48,0,0,1,127.22,1424.55Z"/><path class="a934b605-c537-462b-a82e-03baeea0f850" d="M70.76,1238.9a3.74,3.74,0,0,1-.66-.05,4.55,4.55,0,0,1-3.86-5.16c2.87-19.91,44.58-79.24,92.87-147.94,53.63-76.29,114.41-162.75,119-193.09a4.57,4.57,0,1,1,9,1.35c-4.86,32.48-63.65,116.11-120.51,197-43.63,62.06-88.74,126.25-91.31,144A4.56,4.56,0,0,1,70.76,1238.9Z"/><path class="a934b605-c537-462b-a82e-03baeea0f850" d="M407.66,925.74a4.26,4.26,0,0,1-.61,0,4.56,4.56,0,0,1-3.92-5.13c.56-4.19,2.45-7.66,4.29-11,1.6-2.93,3.11-5.7,3.47-8.57,2.64-21.16-9.36-56.12-24.22-70.57a4.56,4.56,0,0,1,6.36-6.54c16.82,16.34,29.9,54.37,26.91,78.24-.57,4.6-2.66,8.43-4.51,11.81-1.5,2.75-2.92,5.35-3.25,7.86A4.57,4.57,0,0,1,407.66,925.74Z"/><path class="a934b605-c537-462b-a82e-03baeea0f850" d="M385.74,830.34a4.59,4.59,0,0,1-4.4-5.78c2-7.14,7-18.6,12.33-30.73,5.06-11.53,10.3-23.46,13.78-33.47,2-5.88,5.3-11,8.53-15.84s6.2-9.41,7.87-14.64c2.27-7.38,2.76-20.9-1-22.87-1.25-.62-5.63-.47-17.37,15.26l-7,9.25c-11.27,14.8-21.91,28.79-32.61,46-.63,1-1.19,1.83-1.76,2.73-4.43,6.94-10.48,16.45-21.29,15.38a4.57,4.57,0,0,1,.91-9.09c4.86.51,8.3-4.34,12.68-11.2.61-1,1.2-1.89,1.79-2.77,10.85-17.44,21.61-31.59,33-46.57l7-9.18c5.71-7.65,17.6-23.55,28.86-17.92,13.09,6.93,5.6,33.46,5.52,33.73-2.07,6.46-5.57,11.78-9,16.92-3,4.61-5.91,9-7.51,13.77-3.62,10.4-8.93,22.49-14.06,34.19s-10.09,23-11.89,29.48A4.56,4.56,0,0,1,385.74,830.34Z"/><path class="a934b605-c537-462b-a82e-03baeea0f850" d="M343.75,797a4,4,0,0,1-.6,0c-20.68-2.72-39.9-27.13-47.18-39.67a4.57,4.57,0,1,1,7.9-4.58c7.26,12.51,24.67,33.12,40.47,35.2a4.56,4.56,0,0,1-.59,9.09Z"/><path class="a934b605-c537-462b-a82e-03baeea0f850" d="M263.4,822.57a4.57,4.57,0,0,1-4.31-3.06c-2.33-6.7-5.63-13.8-9.12-21.32-7.38-15.88-15-32.3-15.33-48.57,0-10.23,7.14-18.86,12.87-25.8,1.27-1.53,2.49-3,3.59-4.45,7.55-9.36,14.4-19.69,21-29.68,3.41-5.15,6.83-10.3,10.35-15.35,5-7.07,10-14.23,15-21.38s10.09-14.45,15.13-21.56c2.41-3.22,8.6-10.52,15.46-10.72a9.33,9.33,0,0,1,7.73,3.56c10.78,12.94,5.47,33.41,2.3,45.64-4.43,17.72-12.14,34.53-19.59,50.78-2.73,6-5.46,11.91-8,17.89-.7,1.58-1.39,3.06-2.06,4.51-4.7,10.19-8.09,17.54-4.66,27.86a4.56,4.56,0,1,1-8.66,2.88c-4.58-13.74.09-23.86,5-34.56.65-1.42,1.32-2.86,2-4.34,2.57-6,5.33-12,8.09-18,7.28-15.87,14.81-32.28,19-49.22,2.74-10.57,7.32-28.2-.44-37.51-.28-.32-.36-.33-.47-.32-1.76.05-5.51,3.18-8.35,7-5,7-10,14.2-15,21.4s-10,14.35-15,21.41c-3.46,5-6.84,10.06-10.21,15.15C273,704.9,266,715.41,258.28,725c-1.09,1.43-2.39,3-3.73,4.62-5.05,6.12-10.78,13-10.78,19.9.29,14.26,7.5,29.79,14.48,44.81,3.59,7.73,7,15,9.46,22.17a4.56,4.56,0,0,1-2.81,5.81A4.63,4.63,0,0,1,263.4,822.57Z"/><path class="a934b605-c537-462b-a82e-03baeea0f850" d="M229.62,828.51a4.58,4.58,0,0,1-4.32-3.08c-3.19-9.28-7.27-18.45-11.58-28.14-9-20.2-18.29-41.08-19.25-63.54-.86-17.62,8.14-31.28,16.84-44.5,1.33-2,2.66-4,4-6.08,20.67-32.79,35.61-56.5,69.45-77.65l2.34-1.53c11.19-7.35,23.83-15.12,32.08-14.2A12,12,0,0,1,329.62,598c3.81,11-5.32,30-10,34.67a4.56,4.56,0,0,1-6.45-6.45c3.35-3.36,10.15-18.61,7.86-25.24-.4-1.16-1-1.93-2.9-2.15-5.76-.65-20.45,9.09-26,12.76l-2.47,1.61c-32.11,20.08-45.84,41.86-66.62,74.83-1.33,2.09-2.69,4.15-4,6.21-8.26,12.54-16.06,24.39-15.35,39.06.89,20.76,9.83,40.83,18.47,60.25,4.21,9.45,8.55,19.22,11.88,28.88a4.56,4.56,0,0,1-2.84,5.8A4.51,4.51,0,0,1,229.62,828.51Z"/><path class="a934b605-c537-462b-a82e-03baeea0f850" d="M295.36,916.61a4.55,4.55,0,0,1-4.32-3.09c-4.3-12.59-15.7-23.28-26.72-33.62-4.29-4-8.34-7.83-12-11.76-16.86-18.22-34.31-36.56-51.18-54.29-11.61-12.2-23.2-24.37-34.63-36.54-2.5-2.66-5.13-5.32-7.8-8-11.94-12.07-25.48-25.76-30.26-43.69-9.09-33.6,2.56-68.88,12.83-100,2.07-6.26,4.1-12.42,5.93-18.44l.11-.37c6.23-21.92,13.26-33.52,21.5-35.46,3.08-.72,7.75-.46,12.61,4.86,5.94,6.93,7.36,18.38,8,29.75,1.33,16-2.13,30.82-5.49,45.15-2.61,11.17-5.08,21.72-5.46,32.87-.32,11.68,6.7,21.33,14.14,31.55,2.11,2.91,4.21,5.8,6.11,8.71a4.56,4.56,0,1,1-7.63,5c-1.83-2.79-3.84-5.55-5.87-8.34-7.63-10.49-16.28-22.38-15.88-37.2.42-12.07,3.11-23.56,5.7-34.67,3.34-14.27,6.5-27.75,5.27-42.43-.36-6.21-1.11-18.91-5.76-24.34-1.41-1.54-2.67-2.26-3.68-2-1.17.27-7.4,3-14.81,29.06l-.13.46c-1.87,6.16-3.93,12.39-6,18.72-10.35,31.37-21.06,63.82-12.68,94.79,4.16,15.6,16.24,27.81,27.93,39.63,2.73,2.75,5.42,5.47,8,8.2q17.13,18.23,34.58,36.49c16.89,17.75,34.36,36.11,51.26,54.37,3.45,3.69,7.4,7.39,11.57,11.31,11.84,11.1,24.08,22.59,29.12,37.33a4.57,4.57,0,0,1-2.85,5.8A4.76,4.76,0,0,1,295.36,916.61Z"/><path class="a934b605-c537-462b-a82e-03baeea0f850" d="M126,695.67a4.55,4.55,0,0,1-3.94-2.26l-1.64-2.78c-7.88-13.38-17.68-30-20.38-45.3a19.29,19.29,0,0,1,1.17-10.25,4.57,4.57,0,0,1,8.48,3.39,10.1,10.1,0,0,0-.65,5.32c2.4,13.6,11.74,29.46,19.25,42.2l1.64,2.8A4.56,4.56,0,0,1,128.3,695,4.48,4.48,0,0,1,126,695.67Z"/><path class="a934b605-c537-462b-a82e-03baeea0f850" d="M236.47,1499.56a4.36,4.36,0,0,1-1.38-.21,4.55,4.55,0,0,1-3-5.73c11.61-36.57,14.61-100.58,8-171.21a4.56,4.56,0,1,1,9.09-.85c6.7,71.79,3.55,137.15-8.41,174.82A4.58,4.58,0,0,1,236.47,1499.56Z"/><path class="a934b605-c537-462b-a82e-03baeea0f850" d="M1093.78,1131.63a4.57,4.57,0,0,1-2.41-8.45c29-18,18.72-62.54,8.8-105.64-1.39-6-2.76-12-4-17.8l-3.25-15.48c-18.31-87.64-43.4-207.66-97.56-244.18a4.57,4.57,0,0,1,5.11-7.57c57.24,38.6,81.72,155.75,101.39,249.88l3.24,15.45c1.24,5.78,2.6,11.69,4,17.65,10.16,44.07,21.67,94-12.88,115.45A4.59,4.59,0,0,1,1093.78,1131.63Z"/><path class="a934b605-c537-462b-a82e-03baeea0f850" d="M1084.64,1120.21a4.53,4.53,0,0,1-2.72-.9,4.58,4.58,0,0,1-.94-6.39c6.09-8.18,7.24-18.51,3-27-4.08-8.12-12.16-12.78-22.16-12.78-33.42,0-44.07.63-90.34,15.75a4.56,4.56,0,0,1-2.83-8.67c47.44-15.51,59.31-16.21,93.17-16.21,13.38,0,24.71,6.66,30.31,17.81,5.8,11.55,4.34,25.54-3.83,36.5A4.53,4.53,0,0,1,1084.64,1120.21Z"/><path class="a934b605-c537-462b-a82e-03baeea0f850" d="M1002.15,1424.54a35.7,35.7,0,0,1-4.89-.34c-37.52-5.23-74.4-47.49-96.43-72.74l-.4-.46c-37.38-42.76-80.49-160.5-118.52-264.39-24.23-66.15-47.1-128.65-65.6-164.24a4.56,4.56,0,1,1,8.1-4.21c18.77,36.11,41.74,98.87,66.07,165.31,37.76,103.14,80.56,220,116.83,261.53l.4.46c21.19,24.29,56.67,64.94,90.83,69.7,18.11,2.56,32.85-15.12,44.74-29.33l3.19-3.8c33-39.07,47.76-84.34,47.76-146.78,0-27-5.44-54.51-10.71-81s-10.74-54.19-10.74-81.46a4.57,4.57,0,1,1,9.13,0c0,26.37,5.37,53.47,10.57,79.68,5.35,27,10.88,54.88,10.88,82.83,0,64.75-15.4,111.84-49.92,152.68l-3.16,3.76C1038.56,1405.71,1022.81,1424.54,1002.15,1424.54Z"/><path class="a934b605-c537-462b-a82e-03baeea0f850" d="M1058.62,1238.9a4.54,4.54,0,0,1-4.51-3.91c-2.57-17.74-47.69-81.93-91.32-144-56.85-80.88-115.64-164.51-120.5-197a4.57,4.57,0,0,1,9-1.35c4.53,30.34,65.31,116.8,118.93,193.08,48.3,68.71,90,128,92.88,148a4.55,4.55,0,0,1-3.87,5.16A3.63,3.63,0,0,1,1058.62,1238.9Z"/><path class="a934b605-c537-462b-a82e-03baeea0f850" d="M721.27,925.74a4.56,4.56,0,0,1-4.52-4c-.34-2.51-1.76-5.11-3.26-7.86-1.84-3.38-3.93-7.21-4.51-11.81-3-23.86,10.09-61.89,26.91-78.24a4.56,4.56,0,0,1,6.37,6.54C727.39,844.87,715.39,879.82,718,901c.36,2.87,1.87,5.64,3.47,8.57,1.83,3.36,3.73,6.83,4.29,11a4.57,4.57,0,0,1-3.93,5.13A4,4,0,0,1,721.27,925.74Z"/><path class="a934b605-c537-462b-a82e-03baeea0f850" d="M743.64,830.34a4.56,4.56,0,0,1-4-2.43c-8.21-15.46-19.31-44.43-26.3-64.55-1.62-4.86-4.49-9.21-7.53-13.82-3.39-5.14-6.89-10.46-8.94-16.87-.1-.32-7.59-26.85,5.4-33.73,11.37-5.68,23.25,10.23,29,17.87l7,9.18c11.4,15,22.16,29.13,33.09,46.69.51.76,1.11,1.69,1.71,2.65,4.38,6.87,7.87,11.69,12.68,11.2a4.57,4.57,0,0,1,.91,9.09c-10.72,1.09-16.86-8.44-21.28-15.38-.58-.9-1.14-1.78-1.69-2.61-10.78-17.32-21.42-31.31-32.68-46.11l-7-9.25c-11.74-15.72-16.12-15.89-17.46-15.22-3.65,1.94-3.16,15.45-.87,22.88,1.65,5.18,4.67,9.75,7.85,14.59s6.57,10,8.55,15.9c7.42,21.32,18.26,49.17,25.72,63.21a4.56,4.56,0,0,1-1.89,6.17A4.47,4.47,0,0,1,743.64,830.34Z"/><path class="a934b605-c537-462b-a82e-03baeea0f850" d="M785.18,797a4.57,4.57,0,0,1-.6-9.09c15.81-2.08,33.22-22.69,40.47-35.2a4.57,4.57,0,1,1,7.9,4.58c-7.28,12.54-26.5,37-47.17,39.67A4.22,4.22,0,0,1,785.18,797Z"/><path class="a934b605-c537-462b-a82e-03baeea0f850" d="M866,822.57a4.63,4.63,0,0,1-1.5-.25,4.56,4.56,0,0,1-2.81-5.81c2.48-7.13,5.87-14.43,9.46-22.16,7-15,14.19-30.56,14.48-44.91,0-6.76-5.72-13.69-10.77-19.8-1.35-1.62-2.65-3.2-3.81-4.72-7.67-9.51-14.64-20-21.38-30.17-3.38-5.1-6.76-10.19-10.24-15.19-5-7-10-14.15-14.95-21.3s-10.11-14.46-15.16-21.58c-2.77-3.7-6.52-6.83-8.28-6.88-.1,0-.2,0-.48.34-7.74,9.29-3.17,26.92-.44,37.45,4.25,17,11.77,33.4,19.06,49.28,2.76,6,5.52,12,8.11,18.09.63,1.42,1.3,2.86,2,4.28,4.94,10.7,9.61,20.82,5,34.56a4.56,4.56,0,1,1-8.66-2.88c3.44-10.32,0-17.67-4.66-27.86q-1-2.17-2-4.45c-2.59-6-5.31-12-8-17.93-7.46-16.26-15.17-33.07-19.61-50.84-3.16-12.19-8.47-32.66,2.29-45.57a9.49,9.49,0,0,1,7.75-3.59c6.86.2,13.05,7.5,15.39,10.62q7.7,10.85,15.26,21.73c5,7.13,10,14.26,14.94,21.28,3.54,5.08,7,10.24,10.38,15.39,6.63,10,13.48,20.31,21,29.58,1.17,1.53,2.4,3,3.66,4.55,5.73,6.93,12.87,15.56,12.87,25.7-.33,16.37-8,32.78-15.33,48.66-3.49,7.52-6.79,14.62-9.12,21.32A4.57,4.57,0,0,1,866,822.57Z"/><path class="a934b605-c537-462b-a82e-03baeea0f850" d="M899.76,828.51a4.51,4.51,0,0,1-1.48-.25,4.56,4.56,0,0,1-2.83-5.8c3.32-9.66,7.66-19.43,11.87-28.88,8.64-19.42,17.58-39.49,18.47-60.22.72-14.7-7.09-26.55-15.35-39.1-1.36-2-2.71-4.11-4-6.18-20.78-33-34.51-54.77-66.59-74.82-1-.67-2.27-1.5-3.67-2.45-5.75-3.89-19.18-13-24.93-12.4a3,3,0,0,0-2.93,2.29c-2.37,6.89,4.21,22.24,7.51,25.55a4.56,4.56,0,0,1-6.46,6.45c-4.66-4.66-13.58-23.67-9.68-35a12.16,12.16,0,0,1,10.54-8.38c8.35-.88,19.95,6.39,31.07,13.91,1.33.9,2.5,1.69,3.44,2.3,33.8,21.12,48.74,44.83,69.41,77.64,1.28,2,2.62,4,4,6,8.7,13.22,17.7,26.89,16.84,44.54-1,22.43-10.26,43.31-19.25,63.51-4.31,9.69-8.39,18.86-11.58,28.14A4.57,4.57,0,0,1,899.76,828.51Z"/><path class="a934b605-c537-462b-a82e-03baeea0f850" d="M834,916.61a4.71,4.71,0,0,1-1.47-.24,4.57,4.57,0,0,1-2.85-5.8c5-14.74,17.28-26.22,29.11-37.33,4.18-3.92,8.13-7.62,11.6-11.33,16.85-18.21,34.29-36.54,51.16-54.26,11.62-12.22,23.22-24.4,34.67-36.59,2.54-2.72,5.23-5.44,8-8.2,11.69-11.81,23.77-24,27.93-39.61,8.38-31-2.33-63.43-12.68-94.81-2.09-6.33-4.15-12.55-6-18.64,0,0-.14-.49-.14-.51-7.42-26.11-13.65-28.81-14.82-29.08-1-.24-2.26.48-3.77,2.13-4.55,5.31-5.3,18-5.67,24.12-1.23,14.79,1.93,28.27,5.27,42.54,2.59,11.11,5.28,22.6,5.7,34.64.4,14.85-8.25,26.74-15.89,37.24-2,2.78-4,5.55-5.86,8.33a4.57,4.57,0,1,1-7.64-5c1.91-2.91,4-5.79,6.12-8.7,7.44-10.23,14.46-19.88,14.14-31.59-.38-11.12-2.85-21.67-5.46-32.84-3.36-14.33-6.83-29.16-5.48-45.26.44-7.54,1.28-21.78,7.93-29.53,5-5.43,9.63-5.7,12.7-5,8.24,1.94,15.28,13.54,21.51,35.47,1.93,6.37,4,12.53,6,18.79,10.28,31.14,21.93,66.42,12.83,100-4.77,17.91-18.3,31.6-30.25,43.66-2.67,2.71-5.3,5.37-7.8,8-11.46,12.2-23.07,24.4-34.71,36.63-16.85,17.7-34.26,36-51.09,54.19-3.69,3.94-7.74,7.74-12,11.77-11,10.34-22.41,21-26.72,33.62A4.55,4.55,0,0,1,834,916.61Z"/><path class="a934b605-c537-462b-a82e-03baeea0f850" d="M1003.38,695.67a4.51,4.51,0,0,1-2.3-.63,4.57,4.57,0,0,1-1.63-6.25l1.64-2.79c7.51-12.75,16.85-28.61,19.26-42.25a9.4,9.4,0,0,0-3-8.34,7.47,7.47,0,0,0-7.22-1.55,26.69,26.69,0,0,0-6.28,2.87c-1.12.63-2.26,1.26-3.43,1.85a4.57,4.57,0,0,1-4.09-8.17c1-.52,2.07-1.09,3.06-1.65a34,34,0,0,1,8.38-3.71,16.49,16.49,0,0,1,15.6,3.5,18.67,18.67,0,0,1,6,16.67c-2.72,15.38-12.52,32-20.4,45.42l-1.64,2.77A4.55,4.55,0,0,1,1003.38,695.67Z"/><path class="a934b605-c537-462b-a82e-03baeea0f850" d="M892.46,1499.56a4.57,4.57,0,0,1-4.37-3.22C874,1450.27,877,1376.86,882,1323.39a4.57,4.57,0,0,1,9.1.84c-7,74.43-4.9,134.6,5.75,169.43a4.56,4.56,0,0,1-3,5.7A4.49,4.49,0,0,1,892.46,1499.56Z"/><path class="a934b605-c537-462b-a82e-03baeea0f850" d="M721.27,622.63a4.58,4.58,0,0,1-4.45-3.55c-2.47-10.88-1.88-31.88-.53-42.24a4.51,4.51,0,0,1,5.11-3.93,4.56,4.56,0,0,1,3.94,5.11c-1.29,9.91-1.77,29.55.39,39a4.57,4.57,0,0,1-3.45,5.46A4.36,4.36,0,0,1,721.27,622.63Z"/><path class="a934b605-c537-462b-a82e-03baeea0f850" d="M131,661.89a4.58,4.58,0,0,1-3.36-1.47C68.93,596.88,37.89,522.56,37.89,445.51a4.57,4.57,0,1,1,9.13,0c0,74.71,30.21,146.89,87.35,208.71a4.58,4.58,0,0,1-3.35,7.67Z"/><path class="a934b605-c537-462b-a82e-03baeea0f850" d="M195.84,719a4.55,4.55,0,0,1-2.81-1c-2-1.58-4.15-3.15-6.29-4.73s-4.4-3.24-6.49-4.86a4.56,4.56,0,1,1,5.61-7.2c2,1.57,4.16,3.14,6.3,4.72s4.4,3.24,6.48,4.86a4.57,4.57,0,0,1-2.8,8.17Z"/><path class="a934b605-c537-462b-a82e-03baeea0f850" d="M345.57,793.36a4.53,4.53,0,0,1-1.53-.27c-2.71-1-5.42-1.85-8.1-2.72-3.67-1.2-7.27-2.38-10.72-3.7a4.57,4.57,0,1,1,3.27-8.53c3.31,1.28,6.77,2.4,10.28,3.55,2.76.9,5.55,1.81,8.34,2.8a4.57,4.57,0,0,1-1.54,8.87Z"/><path class="a934b605-c537-462b-a82e-03baeea0f850" d="M551,825.77a690.53,690.53,0,0,1-146.6-15.62,4.57,4.57,0,0,1,1.94-8.93A681,681,0,0,0,551,816.64c60,0,117.93-7.47,172.27-22.21a4.56,4.56,0,1,1,2.39,8.81C670.53,818.19,611.77,825.77,551,825.77Z"/><path class="a934b605-c537-462b-a82e-03baeea0f850" d="M777.88,786.51a4.57,4.57,0,0,1-1.62-8.84c12.93-4.9,26.3-10,39-15.84a4.56,4.56,0,0,1,3.84,8.28c-13,6-26.48,11.14-39.57,16.11A4.57,4.57,0,0,1,777.88,786.51Z"/><path class="a934b605-c537-462b-a82e-03baeea0f850" d="M927.16,703.43a4.57,4.57,0,0,1-2.91-8.09c7.82-6.44,15.06-12.8,22.15-19.44a4.56,4.56,0,1,1,6.24,6.66c-7.23,6.78-14.62,13.26-22.59,19.83A4.52,4.52,0,0,1,927.16,703.43Z"/><path class="a934b605-c537-462b-a82e-03baeea0f850" d="M991.51,638.15a4.57,4.57,0,0,1-3.57-7.4c44.15-55.65,67.49-119.7,67.49-185.24a4.57,4.57,0,1,1,9.13,0c0,67.62-24,133.64-69.47,190.91A4.54,4.54,0,0,1,991.51,638.15Z"/><path class="a934b605-c537-462b-a82e-03baeea0f850" d="M142,627.19a4.54,4.54,0,0,1-3.36-1.47C90.48,573.46,56,511.71,39,447.13a4.57,4.57,0,0,1,8.83-2.33c16.69,63.14,50.42,123.57,97.55,174.74a4.56,4.56,0,0,1-3.36,7.65Z"/><path class="a934b605-c537-462b-a82e-03baeea0f850" d="M212.27,688.82a4.56,4.56,0,0,1-2.65-.85c-10.42-7.44-19.89-14.73-28.13-21.68a4.56,4.56,0,1,1,5.87-7c8.07,6.78,17.34,13.93,27.56,21.23a4.56,4.56,0,0,1-2.65,8.28Z"/><path class="a934b605-c537-462b-a82e-03baeea0f850" d="M365.2,763.23a4.61,4.61,0,0,1-1.31-.19,489,489,0,0,1-53.46-19.36,4.57,4.57,0,1,1,3.63-8.38,479.58,479.58,0,0,0,52.45,19,4.57,4.57,0,0,1-1.31,8.94Z"/><path class="a934b605-c537-462b-a82e-03baeea0f850" d="M551.91,790.16A688.83,688.83,0,0,1,414.5,776.38a4.57,4.57,0,0,1,1.83-9A678.64,678.64,0,0,0,551.91,781,630,630,0,0,0,711,760.64a4.57,4.57,0,0,1,2.31,8.84A639.46,639.46,0,0,1,551.91,790.16Z"/><path class="a934b605-c537-462b-a82e-03baeea0f850" d="M754.6,756.84a4.57,4.57,0,0,1-1.48-8.89c19.06-6.5,38.6-14.13,58.07-22.68a4.57,4.57,0,1,1,3.67,8.36c-19.71,8.66-39.49,16.38-58.79,23A4.5,4.5,0,0,1,754.6,756.84Z"/><path class="a934b605-c537-462b-a82e-03baeea0f850" d="M911.18,677.86a4.56,4.56,0,0,1-2.74-8.22l2.66-2c10-7.51,19.48-14.59,28.59-22.46a4.57,4.57,0,0,1,6,6.91c-9.35,8.07-18.94,15.26-29.09,22.86l-2.66,2A4.57,4.57,0,0,1,911.18,677.86Z"/><path class="a934b605-c537-462b-a82e-03baeea0f850" d="M982.85,614.87a4.57,4.57,0,0,1-3.38-7.64c48.06-52.68,73.69-109.41,74.13-164a4.57,4.57,0,0,1,4.57-4.52h0a4.55,4.55,0,0,1,4.53,4.6c-.46,56.93-26.92,115.75-76.51,170.12A4.55,4.55,0,0,1,982.85,614.87Z"/><path class="a934b605-c537-462b-a82e-03baeea0f850" d="M583.61,646.21a29.09,29.09,0,0,1-10.54-2c-9.62-4.05-21.22-13.45-25-23.68-.28-.84-.61-2.27-1-4.07a80,80,0,0,0-2.69-10.07c-2.36,1.56-5,5.33-7.33,8.74-4.15,6-8.45,12.23-15.18,13.76-8.44,2.29-12.78-2-16-5.13-1.65-1.63-3.08-3-5.05-3.62-.87.17-3.37,2.86-4.87,4.47-4.77,5.13-12,12.87-22.64,8.1-3-1.39-5.94-4.16-9.05-7.1-2.75-2.6-7.92-7.42-9.94-7.15-4.83.58-8.75,3.4-13.28,6.66-7.37,5.29-16.52,11.87-31.13,7.33-7.18-2.48-14.15-8.83-20.88-15-6.33-5.78-13.51-12.32-18.28-12.69-5.76-.58-10.4.49-15.31,1.64-9.39,2.19-19.1,4.45-32.8-6.25-6.47-5-9.3-12.4-11.8-19-1.76-4.6-3.43-9-6-11.61-1.32-.2-5,.67-7.2,1.2-5.58,1.33-11.91,2.84-16.56,0-5.95-3.72-10.23-11.05-14-17.52-1.62-2.78-3.16-5.41-4.62-7.41C250.93,528.81,61.52,449,45.17,447.31a4.57,4.57,0,0,1,1-9.08c18.58,1.95,210.42,82.6,223.79,102.41A92.82,92.82,0,0,1,275,548.7c3.24,5.56,6.92,11.85,10.94,14.36,1.39.86,6.54-.37,9.62-1.1,5.86-1.39,11.4-2.71,15.18.65,4.4,4.13,6.58,9.85,8.7,15.38,2.27,6,4.42,11.57,8.87,15,10.28,8,16.51,6.58,25.13,4.57,5.17-1.21,11-2.58,18.19-1.84,7.8.59,15.48,7.61,23.62,15,6,5.52,12.31,11.22,17.58,13,10.12,3.14,16.07-1.13,22.95-6.07,5.09-3.66,10.35-7.44,17.46-8.3,6.37-.83,12.19,4.69,17.35,9.57,2.33,2.2,5,4.69,6.57,5.43,4.18,1.86,7.06-.51,12.18-6,3.82-4.11,8.17-8.75,14.13-7,4.16,1.22,6.78,3.81,8.88,5.88,2.76,2.72,3.79,3.74,7.34,2.77,3.46-.79,6.73-5.52,9.89-10.09,4.19-6.07,8.53-12.34,15.32-13.31,7-.91,9.13,8.66,11.13,17.89.3,1.37.52,2.46.7,3,2.68,7.29,12.19,15,19.8,18.24a20,20,0,0,0,22.93-6.36,30.9,30.9,0,0,0,1.74-4.1c2.27-6,5.78-15,13.11-13,7.59,2.32,13.4,6.7,19,10.94C641,629,647.7,634.05,657.6,633.59c7.61-.36,17.09-4.7,19.65-12a16.62,16.62,0,0,0-.63-3.62c-.76-3.14-2.32-9.67,3.54-12.28,5.5-2.45,9.63,2.15,12.1,4.89a14.7,14.7,0,0,0,3,2.88c10,4.38,30.5,5.69,38.45-1.5a21.89,21.89,0,0,0,6.32-18.69,4.74,4.74,0,0,1-.06-.75,7,7,0,0,1-.26-1.13c-1.7-9.16-2.12-13.42,1-15.76a5.11,5.11,0,0,1,5-.61c6.89,2.38,12.72,5.9,18.35,9.31,11,6.65,20.5,12.4,35.16,7.51,7.53-2.51,10.22-8.28,13.34-15,3-6.46,6.43-13.79,15-16.55,24.87-7.84,141-71,196.79-101.33,21.44-11.65,31-16.84,32.86-17.66a4.57,4.57,0,0,1,3.66,8.37c-1.59.69-15.08,8-32.16,17.32-60.35,32.82-172.69,93.91-198.37,102-4.53,1.46-6.57,5.4-9.51,11.71-3.32,7.13-7.46,16-18.73,19.76-18.68,6.23-30.92-1.19-42.77-8.36A123.18,123.18,0,0,0,748,585.79c.18,1.12.4,2.43.68,3.91.16.84.27,1.55.33,2h0a31.09,31.09,0,0,1-9.16,26.93c-11.24,10.17-35.7,8.65-48.3,3.11a18.18,18.18,0,0,1-5.82-4.79,13.75,13.75,0,0,1,.11,7.53c-4.12,11.79-17.32,17.68-27.84,18.18-13.38.59-22.31-6.19-30.26-12.19-4.86-3.68-9.47-7.16-14.87-9.08a41.5,41.5,0,0,0-3.2,7.11c-1.09,2.86-1.94,5.12-3.17,6.59A29.1,29.1,0,0,1,583.61,646.21Z"/></g></g></g></svg>